<svg width="1453" height="627" viewBox="0 0 1453 627" fill="none" xmlns="http://www.w3.org/2000/svg">
<path fill-rule="evenodd" clip-rule="evenodd" d="M0.350586 454.556C24.9915 482.094 56.0312 508.966 89.9095 532C142.757 567.8 200.951 594 262.976 609.8C307.655 621.1 354.149 626.9 401.147 626.9C431.504 626.9 462.467 624.5 493.328 619.7C585.409 605.6 679.91 570.2 774.41 514.5C871.231 457.4 964.421 411.5 1051.36 378C1126.7 349 1197.7 329.1 1262.24 318.9C1295.73 313.7 1327.5 311 1356.64 311C1375.1 311 1392.85 312.1 1409.29 314.2C1422.02 315.856 1437.37 318.582 1452.66 323.154V0H0.350586V454.556Z" fill="#FF0033"/>
</svg>
